# xmcd
#
# Track frame offsets:
#	150
#	12630
#	22415
#	35977
#	46752
#	56900
#	69487
#	82545
#	92290
#	106910
#	117217
#	127497
#
# Disc length: 1917 seconds
#
# Revision: 1
# Processed by: cddbd v1.4PL0 Copyright (c) Steve Scherf et al.
# Submitted via: audiograbber 1.82.02
#
DISCID=a3077b0c
DTITLE=Various Artist - Country Classics
DYEAR=1900
DGENRE=Country
TTITLE0=Johnny Cash - I Walk The Line
TTITLE1=Dave Dudley - Six Days On The Road
TTITLE2=Patti Page - Tennessee Waltz
TTITLE3=Hank Locklin - Please Help me I`m Falling
TTITLE4=Webb Pierce - There Stands The Glass
TTITLE5=Randy Travis - Dreamin
TTITLE6=Jerry Lee Lewis - Whole Lotta  Shakin Going On
TTITLE7=Ned Miller - From A Jack To A King
TTITLE8=Jeannie C Riley - Harper Valley PTA
TTITLE9=Leroy Van Dyke - Walk On By
TTITLE10=Carl Perkins - Blue Suede Shoes
TTITLE11=Jimmie Davis - You Are My Sunshine
EXTD=
EXTT0=
EXTT1=
EXTT2=
EXTT3=
EXTT4=
EXTT5=
EXTT6=
EXTT7=
EXTT8=
EXTT9=
EXTT10=
EXTT11=
PLAYORDER=
